<svg width="167" height="83" viewBox="0 0 167 83" fill="none" xmlns="http://www.w3.org/2000/svg">
<rect y="10" width="167" height="56" fill="#F2CE1B"/>
<path d="M4.98047 61V16.3125H22.8555V24.9453H14.0703V33.6543H22.5V42.0586H14.0703V52.291H23.4395V61H4.98047ZM24.8502 61V16.3125H33.7877V53.3828H42.9791V61H24.8502ZM43.9581 61V16.3125H61.8331V24.9453H53.048V33.6543H61.4777V42.0586H53.048V52.291H62.4171V61H43.9581ZM74.238 61.4062C71.0049 61.4062 68.3981 60.3991 66.4177 58.3848C64.4541 56.3704 63.4723 53.5521 63.4723 49.9297V29.3125C63.4723 24.9792 64.3272 21.6615 66.0368 19.3594C67.7634 17.0573 70.5648 15.9062 74.4411 15.9062C76.557 15.9062 78.4359 16.2956 80.0778 17.0742C81.7367 17.8529 83.0401 19.0208 83.988 20.5781C84.9359 22.1185 85.4098 24.0651 85.4098 26.418V34.1367H76.5231V27.5352C76.5231 26.1979 76.3539 25.3008 76.0153 24.8438C75.6768 24.3698 75.152 24.1328 74.4411 24.1328C73.6117 24.1328 73.0531 24.4375 72.7653 25.0469C72.4776 25.6393 72.3337 26.4349 72.3337 27.4336V49.8027C72.3337 51.0384 72.5114 51.9102 72.8669 52.418C73.2393 52.9258 73.764 53.1797 74.4411 53.1797C75.2028 53.1797 75.736 52.8665 76.0407 52.2402C76.3623 51.6139 76.5231 50.8014 76.5231 49.8027V41.7539H85.5114V50.209C85.5114 54.1361 84.5212 56.9883 82.5407 58.7656C80.5602 60.526 77.7927 61.4062 74.238 61.4062ZM90.7815 61V24.8945H85.4748V16.3125H105.026V24.8945H99.719V61H90.7815ZM105.548 61V16.3125H114.18V61H105.548ZM126.839 61.4062C123.268 61.4062 120.534 60.3314 118.638 58.1816C116.759 56.015 115.82 52.8919 115.82 48.8125V27.5859C115.82 23.7604 116.751 20.8574 118.613 18.877C120.492 16.8965 123.234 15.9062 126.839 15.9062C130.445 15.9062 133.178 16.8965 135.04 18.877C136.919 20.8574 137.859 23.7604 137.859 27.5859V48.8125C137.859 52.8919 136.911 56.015 135.015 58.1816C133.136 60.3314 130.411 61.4062 126.839 61.4062ZM126.915 53.1797C128.27 53.1797 128.947 51.8678 128.947 49.2441V27.4336C128.947 25.2331 128.286 24.1328 126.966 24.1328C125.477 24.1328 124.732 25.2585 124.732 27.5098V49.2949C124.732 50.6829 124.901 51.6816 125.24 52.291C125.578 52.8835 126.137 53.1797 126.915 53.1797ZM139.904 61V16.3125H149.096L153.209 37.7168V16.3125H161.842V61H153.107L148.639 38.6562V61H139.904Z" fill="white"/>
<path d="M100.266 82L99.1582 71.6875H101.174L101.742 78.1973L102.322 71.6875H104.244L104.795 78.1973L105.346 71.6875H107.385L106.26 82H103.787L103.271 77.0371L102.779 82H100.266ZM107.64 82V71.6875H111.765V73.6797H109.738V75.6895H111.683V77.6289H109.738V79.9902H111.9V82H107.64ZM112.225 82V71.6875H114.288V80.2422H116.409V82H112.225ZM119.037 82.0938C118.291 82.0938 117.69 81.8613 117.233 81.3965C116.779 80.9316 116.553 80.2812 116.553 79.4453V74.6875C116.553 73.6875 116.75 72.9219 117.145 72.3906C117.543 71.8594 118.19 71.5938 119.084 71.5938C119.572 71.5938 120.006 71.6836 120.385 71.8633C120.768 72.043 121.068 72.3125 121.287 72.6719C121.506 73.0273 121.615 73.4766 121.615 74.0195V75.8008H119.565V74.2773C119.565 73.9688 119.525 73.7617 119.447 73.6562C119.369 73.5469 119.248 73.4922 119.084 73.4922C118.893 73.4922 118.764 73.5625 118.697 73.7031C118.631 73.8398 118.598 74.0234 118.598 74.2539V79.416C118.598 79.7012 118.639 79.9023 118.721 80.0195C118.807 80.1367 118.928 80.1953 119.084 80.1953C119.26 80.1953 119.383 80.123 119.453 79.9785C119.527 79.834 119.565 79.6465 119.565 79.416V77.5586H121.639V79.5098C121.639 80.416 121.41 81.0742 120.953 81.4844C120.496 81.8906 119.858 82.0938 119.037 82.0938ZM124.431 82.0938C123.607 82.0938 122.976 81.8457 122.539 81.3496C122.105 80.8496 121.888 80.1289 121.888 79.1875V74.2891C121.888 73.4062 122.103 72.7363 122.533 72.2793C122.966 71.8223 123.599 71.5938 124.431 71.5938C125.263 71.5938 125.894 71.8223 126.324 72.2793C126.757 72.7363 126.974 73.4062 126.974 74.2891V79.1875C126.974 80.1289 126.755 80.8496 126.318 81.3496C125.884 81.8457 125.255 82.0938 124.431 82.0938ZM124.449 80.1953C124.761 80.1953 124.917 79.8926 124.917 79.2871V74.2539C124.917 73.7461 124.765 73.4922 124.46 73.4922C124.117 73.4922 123.945 73.752 123.945 74.2715V79.2988C123.945 79.6191 123.984 79.8496 124.062 79.9902C124.14 80.127 124.269 80.1953 124.449 80.1953ZM127.446 82V71.6875H130.587L131.454 77.9746L132.315 71.6875H135.485V82H133.598V74.5703L132.415 82H130.563L129.309 74.5703V82H127.446ZM136.039 82V71.6875H140.164V73.6797H138.137V75.6895H140.082V77.6289H138.137V79.9902H140.299V82H136.039ZM143.077 82V71.6875H145.872C146.622 71.6875 147.167 71.8711 147.507 72.2383C147.85 72.6016 148.022 73.2031 148.022 74.043V74.4941C148.022 74.9785 147.934 75.3711 147.759 75.6719C147.587 75.9727 147.323 76.1699 146.968 76.2637C147.432 76.3809 147.743 76.6562 147.899 77.0898C148.059 77.5195 148.14 78.0449 148.14 78.666C148.14 79.334 148.077 79.918 147.952 80.418C147.827 80.918 147.6 81.3066 147.272 81.584C146.944 81.8613 146.477 82 145.872 82H143.077ZM145.093 75.5723H145.515C145.706 75.5723 145.829 75.498 145.884 75.3496C145.938 75.2012 145.966 75.0234 145.966 74.8164V73.7793C145.966 73.4473 145.819 73.2812 145.526 73.2812H145.093V75.5723ZM145.298 80.1836C145.833 80.1836 146.1 79.9297 146.1 79.4219V78.1328C146.1 77.8398 146.056 77.6094 145.966 77.4414C145.88 77.2695 145.716 77.1836 145.474 77.1836H145.093V80.1719C145.179 80.1797 145.247 80.1836 145.298 80.1836ZM148.178 82L149.174 71.6875H152.672L153.651 82H151.699L151.553 80.3359H150.311L150.182 82H148.178ZM150.457 78.6895H151.395L150.944 73.4453H150.85L150.457 78.6895ZM156.326 82.0938C155.58 82.0938 154.978 81.8613 154.521 81.3965C154.068 80.9316 153.841 80.2812 153.841 79.4453V74.6875C153.841 73.6875 154.039 72.9219 154.433 72.3906C154.832 71.8594 155.478 71.5938 156.373 71.5938C156.861 71.5938 157.295 71.6836 157.673 71.8633C158.056 72.043 158.357 72.3125 158.576 72.6719C158.795 73.0273 158.904 73.4766 158.904 74.0195V75.8008H156.853V74.2773C156.853 73.9688 156.814 73.7617 156.736 73.6562C156.658 73.5469 156.537 73.4922 156.373 73.4922C156.181 73.4922 156.052 73.5625 155.986 73.7031C155.92 73.8398 155.886 74.0234 155.886 74.2539V79.416C155.886 79.7012 155.927 79.9023 156.009 80.0195C156.095 80.1367 156.216 80.1953 156.373 80.1953C156.548 80.1953 156.671 80.123 156.742 79.9785C156.816 79.834 156.853 79.6465 156.853 79.416V77.5586H158.927V79.5098C158.927 80.416 158.699 81.0742 158.242 81.4844C157.785 81.8906 157.146 82.0938 156.326 82.0938ZM159.259 82V71.6875H161.298V75.8184L162.259 71.6875H164.333L163.179 76.4102L164.573 82H162.435L161.31 77.0078V82H159.259ZM164.846 79.1934L164.436 71.6875H166.534L166.123 79.1934H164.846ZM164.436 81.9941V80.248H166.534V81.9941H164.436Z" fill="#2651A6"/>
</svg>
